Coordinates
version=1
nRows=32
nColumns=38
inDegrees=no

Units are S.I. units (second, meters, Newtons, ...)
If the header above contains a line with 'inDegrees', this indicates whether rotational values are in degrees (yes) or radians (no).

endheader
time	pelvis_tilt	pelvis_list	pelvis_rotation	pelvis_tx	pelvis_ty	pelvis_tz	hip_flexion_r	hip_adduction_r	hip_rotation_r	knee_angle_r	ankle_angle_r	subtalar_angle_r	mtp_angle_r	hip_flexion_l	hip_adduction_l	hip_rotation_l	knee_angle_l	ankle_angle_l	subtalar_angle_l	mtp_angle_l	lumbar_extension	lumbar_bending	lumbar_rotation	arm_flex_r	arm_add_r	arm_rot_r	elbow_flex_r	pro_sup_r	wrist_flex_r	wrist_dev_r	arm_flex_l	arm_add_l	arm_rot_l	elbow_flex_l	pro_sup_l	wrist_flex_l	wrist_dev_l
2.18333	-0.113322	0.0811055	-0.0262995	0.888468	0.959747	-0.283666	0.142212	0.0388623	0.2352	-0.674344	0.401988	-0.0285802	0.00200916	0.715976	0.0944831	-0.0196128	-1.60193	0.117972	-0.0299809	-0.0350909	-0.11914	-0.071019	0.0603793	-0.267074	-0.343991	0.0723704	1.72948	1.82212	-0.0211789	-0.00609321	-0.711047	-0.26648	-0.0188942	1.85981	2.1201	0.0469961	-0.0246415
2.19167	-0.120011	0.0968508	-0.0180521	0.890832	0.965627	-0.285082	0.0984837	0.0113735	0.223285	-0.623891	0.352872	-0.0285802	0.00200916	0.731432	0.11576	-0.0210426	-1.5301	0.129134	-0.0299809	-0.0350909	-0.104991	-0.0895502	0.0667584	-0.267878	-0.342554	0.074529	1.76344	1.82165	-0.0211789	-0.00609321	-0.738376	-0.272937	-0.0232558	1.87747	2.12668	0.0469961	-0.0246415
2.2	-0.126665	0.112484	-0.00953169	0.89345	0.971744	-0.286639	0.0556811	-0.0157696	0.207451	-0.573342	0.293237	-0.0285802	0.00200916	0.741987	0.138385	-0.0204314	-1.45109	0.138477	-0.0299809	-0.0350909	-0.0908635	-0.107789	0.0729531	-0.271306	-0.342158	0.0768576	1.79721	1.82314	-0.0211789	-0.00609321	-0.764514	-0.278273	-0.0279627	1.89427	2.13111	0.0469961	-0.0246415
2.20833	-0.133069	0.127403	-0.000729356	0.896251	0.977982	-0.288302	0.0140723	-0.0416914	0.187888	-0.523676	0.224542	-0.0285802	0.00200916	0.747537	0.161519	-0.017064	-1.36533	0.145971	-0.0299809	-0.0350909	-0.0772293	-0.125133	0.0791441	-0.277256	-0.342541	0.0789431	1.83064	1.82604	-0.0211789	-0.00609321	-0.78897	-0.282714	-0.0327427	1.9099	2.13353	0.0469961	-0.0246415
2.21667	-0.13903	0.140902	0.00831408	0.899158	0.984219	-0.290036	-0.0260727	-0.0654129	0.165235	-0.475893	0.148929	-0.0285802	0.00200916	0.748108	0.184128	-0.0103408	-1.27344	0.151728	-0.0299809	-0.0350909	-0.0645025	-0.14086	0.0855995	-0.285739	-0.343392	0.0802528	1.86367	1.82986	-0.0211789	-0.00609321	-0.811266	-0.286579	-0.0373004	1.92422	2.13437	0.0469961	-0.0246415
2.225	-0.144379	0.152203	0.0174893	0.902091	0.990326	-0.2918	-0.0644567	-0.085906	0.14055	-0.431042	0.069111	-0.0285802	0.00200916	0.743901	0.205043	0.000165101	-1.17634	0.156005	-0.0299809	-0.0350909	-0.0530093	-0.154169	0.0926098	-0.296769	-0.344405	0.080286	1.89623	1.83424	-0.0211789	-0.00609321	-0.830983	-0.290198	-0.0413812	1.93724	2.13429	0.0469961	-0.0246415
2.23333	-0.14899	0.160533	0.0266154	0.904972	0.996172	-0.293548	-0.100726	-0.102185	0.11522	-0.390236	-0.0118288	-0.0285802	0.00200916	0.735329	0.223069	0.0146582	-1.07528	0.15917	-0.0299809	-0.0350909	-0.0429562	-0.16426	0.100394	-0.310238	-0.345319	0.078723	1.92814	1.83895	-0.0211789	-0.00609321	-0.847827	-0.293839	-0.0448387	1.94906	2.13394	0.0469961	-0.0246415
2.24167	-0.15278	0.16524	0.0354489	0.907737	1.00163	-0.295231	-0.134459	-0.113429	0.0908012	-0.354655	-0.090681	-0.0285802	0.00200916	0.723036	0.23712	0.0330451	-0.971921	0.161661	-0.0299809	-0.0350909	-0.0344137	-0.170456	0.109006	-0.325802	-0.345958	0.0755513	1.95903	1.84393	-0.0211789	-0.00609321	-0.861689	-0.29762	-0.04769	1.9598	2.13392	0.0469961	-0.0246415
2.25	-0.155709	0.165911	0.0437092	0.910339	1.00657	-0.296789	-0.165192	-0.119122	0.0688208	-0.325512	-0.164375	-0.0285802	0.00200916	0.707863	0.246354	0.0548577	-0.868237	0.163946	-0.0299809	-0.0350909	-0.027325	-0.172326	0.118259	-0.342812	-0.346254	0.0711338	1.98828	1.84914	-0.0211789	-0.00609321	-0.872676	-0.301458	-0.0501421	1.96958	2.1346	0.0469961	-0.0246415
2.25833	-0.157754	0.16245	0.0511095	0.912757	1.01091	-0.298167	-0.192449	-0.119172	0.0505765	-0.304018	-0.230211	-0.0285802	0.00200916	0.690792	0.250314	0.0792135	-0.766461	0.166488	-0.0299809	-0.0350909	-0.0215446	-0.169802	0.127724	-0.360341	-0.346244	0.0661727	2.01503	1.85454	-0.0211789	-0.00609321	-0.881092	-0.305066	-0.0525582	1.97847	2.13608	0.0469961	-0.0246415
2.26667	-0.158906	0.155131	0.0573849	0.914983	1.01455	-0.299316	-0.21579	-0.113944	0.0369774	-0.291355	-0.286038	-0.0285802	0.00200916	0.672842	0.249011	0.104852	-0.668954	0.169719	-0.0299809	-0.0350909	-0.01692	-0.163217	0.136843	-0.377373	-0.346036	0.0615087	2.03835	1.85998	-0.0211789	-0.00609321	-0.887322	-0.308043	-0.0553298	1.9865	2.13817	0.0469961	-0.0246415
2.275	-0.159097	0.144566	0.0623233	0.917004	1.01747	-0.300213	-0.234866	-0.104217	0.0284506	-0.288647	-0.330353	-0.0285802	0.00200916	0.65494	0.242946	0.130269	-0.578074	0.174048	-0.0299809	-0.0350909	-0.0134565	-0.153224	0.145225	-0.393206	-0.345719	0.057676	2.05757	1.86519	-0.0211789	-0.00609321	-0.891588	-0.31011	-0.0586082	1.99365	2.14043	0.0469961	-0.0246415
2.28333	-0.158259	0.13167	0.0658067	0.918817	1.01968	-0.300847	-0.2494	-0.0911081	0.0248845	-0.296883	-0.362439	-0.0285802	0.00200916	0.637812	0.233059	0.153883	-0.495911	0.179765	-0.0299809	-0.0350909	-0.0112332	-0.140782	0.15249	-0.407279	-0.345379	0.0551149	2.07206	1.86977	-0.0211789	-0.00609321	-0.894059	-0.311012	-0.0624471	1.99986	2.1423	0.0469961	-0.0246415
2.29167	-0.156311	0.117516	0.0678275	0.920423	1.02121	-0.301231	-0.259206	-0.0759149	0.0256598	-0.316845	-0.382397	-0.0285802	0.00200916	0.62189	0.220608	0.174252	-0.424124	0.187023	-0.0299809	-0.0350909	-0.0104607	-0.127004	0.158404	-0.419351	-0.345043	0.0539682	2.0815	1.87324	-0.0211789	-0.00609321	-0.894747	-0.310649	-0.0667117	2.00504	2.14321	0.0469961	-0.0246415
2.3	-0.153199	0.103232	0.0685065	0.92182	1.02209	-0.301399	-0.26415	-0.0599741	0.0297198	-0.348974	-0.391178	-0.0285802	0.00200916	0.6073	0.206999	0.190241	-0.363733	0.195736	-0.0299809	-0.0350909	-0.011311	-0.113068	0.162662	-0.429226	-0.344721	0.0543753	2.0856	1.87515	-0.0211789	-0.00609321	-0.893686	-0.30893	-0.0713	2.00907	2.14276	0.0469961	-0.0246415
2.30833	-0.148917	0.0898311	0.0680811	0.923002	1.0224	-0.301395	-0.264191	-0.0445073	0.0357163	-0.393286	-0.390442	-0.0285802	0.00200916	0.593893	0.193605	0.201181	-0.315132	0.205591	-0.0299809	-0.0350909	-0.0139513	-0.100046	0.165043	-0.436944	-0.344351	0.0562487	2.08431	1.87525	-0.0211789	-0.00609321	-0.890853	-0.305905	-0.0760503	2.01187	2.14072	0.0469961	-0.0246415
2.31667	-0.143545	0.0781367	0.0668917	0.923961	1.02215	-0.301275	-0.259387	-0.0305379	0.0421709	-0.449252	-0.382364	-0.0285802	0.00200916	0.581364	0.181635	0.20693	-0.278135	0.216006	-0.0299809	-0.0350909	-0.0184115	-0.0888261	0.165268	-0.44259	-0.343855	0.0594732	2.07769	1.8735	-0.0211789	-0.00609321	-0.886303	-0.301651	-0.0808893	2.01337	2.13712	0.0469961	-0.0246415
2.325	-0.137207	0.068704	0.0653473	0.924691	1.02136	-0.301108	-0.249962	-0.0188343	0.0476794	-0.515815	-0.369277	-0.0285802	0.00200916	0.569382	0.172044	0.207909	-0.252219	0.22622	-0.0299809	-0.0350909	-0.0246866	-0.0799948	0.163268	-0.446612	-0.343072	0.0635661	2.06615	1.87016	-0.0211789	-0.00609321	-0.879998	-0.296467	-0.0856239	2.01362	2.13209	0.0469961	-0.0246415
2.33333	-0.130055	0.0618291	0.0638887	0.925182	1.02002	-0.30097	-0.236302	-0.0099267	0.0510714	-0.591454	-0.353327	-0.0285802	0.00200916	0.557733	0.165514	0.205032	-0.236752	0.235324	-0.0299809	-0.0350909	-0.0327189	-0.0738303	0.159174	-0.449775	-0.341786	0.0677446	2.05041	1.86573	-0.0211789	-0.00609321	-0.871834	-0.290841	-0.0899538	2.01274	2.1259	0.0469961	-0.0246415
2.34167	-0.122331	0.0576167	0.0629442	0.925434	1.0181	-0.300927	-0.218895	-0.00418342	0.0515013	-0.674312	-0.336225	-0.0285802	0.00200916	0.54643	0.162493	0.199531	-0.231109	0.242226	-0.0299809	-0.0350909	-0.0422781	-0.0704099	0.153027	-0.452766	-0.339851	0.071384	2.03122	1.86077	-0.0211789	-0.00609321	-0.861845	-0.285215	-0.0937075	2.01093	2.11884	0.0469961	-0.0246415
2.35	-0.11433	0.0560392	0.0628913	0.925448	1.01556	-0.301038	-0.198279	-0.00188181	0.0485031	-0.762433	-0.319059	-0.0285802	0.00200916	0.535702	0.163248	0.192766	-0.234751	0.245741	-0.0299809	-0.0350909	-0.0530713	-0.0696577	0.144885	-0.456261	-0.33717	0.073923	2.00933	1.85583	-0.0211789	-0.00609321	-0.850103	-0.280037	-0.096737	2.00843	2.11117	0.0469961	-0.0246415
2.35833	-0.106388	0.0570409	0.0640285	0.925236	1.01235	-0.301342	-0.174939	-0.00328193	0.0419822	-0.853949	-0.302312	-0.0285802	0.00200916	0.525884	0.167911	0.186004	-0.246998	0.244609	-0.0299809	-0.0350909	-0.0646924	-0.0714643	0.134642	-0.460632	-0.333758	0.0751461	1.98531	1.85148	-0.0211789	-0.00609321	-0.836822	-0.275599	-0.0990574	2.0055	2.10311	0.0469961	-0.0246415
2.36667	-0.0988215	0.0605656	0.0665345	0.924809	1.00842	-0.301866	-0.149253	-0.00863171	0.0322191	-0.947256	-0.285968	-0.0285802	0.00200916	0.517324	0.176514	0.180232	-0.267023	0.237783	-0.0299809	-0.0350909	-0.0767684	-0.075704	0.122211	-0.466099	-0.329686	0.0749545	1.95961	1.84823	-0.0211789	-0.00609321	-0.822181	-0.272144	-0.100682	2.00237	2.09481	0.0469961	-0.0246415
2.375	-0.0919262	0.0665531	0.0704442	0.924172	1.00376	-0.302612	-0.121457	-0.0181012	0.0198518	-1.04106	-0.269762	-0.0285802	0.00200916	0.510493	0.188976	0.17596	-0.294194	0.224911	-0.0299809	-0.0350909	-0.0889519	-0.0822559	0.107411	-0.472519	-0.325114	0.0735496	1.93235	1.84645	-0.0211789	-0.00609321	-0.806399	-0.269748	-0.101737	1.99924	2.08633	0.0469961	-0.0246415
2.38333	-0.085917	0.0748606	0.0756224	0.923308	0.998372	-0.303559	-0.09163	-0.0316882	0.00587162	-1.13438	-0.253381	-0.0285802	0.00200916	0.505965	0.205082	0.173199	-0.328217	0.206768	-0.0299809	-0.0350909	-0.101025	-0.0909684	0.090178	-0.479587	-0.320215	0.071178	1.90348	1.84632	-0.0211789	-0.00609321	-0.789562	-0.268434	-0.102305	1.99623	2.07776	0.0469961	-0.0246415
2.39167	-0.0809318	0.0852839	0.08178	0.922192	0.992305	-0.304658	-0.059635	-0.0491249	-0.00843637	-1.22652	-0.236656	-0.0285802	0.00200916	0.504321	0.22443	0.171542	-0.368959	0.18536	-0.0299809	-0.0350909	-0.112802	-0.101663	0.0704468	-0.486679	-0.315206	0.068309	1.87259	1.84776	-0.0211789	-0.00609321	-0.771706	-0.268084	-0.102557	1.99336	2.06919	0.0469961	-0.0246415
2.4	-0.0770303	0.0975197	0.0884965	0.920798	0.985688	-0.305835	-0.0251873	-0.0698119	-0.0215863	-1.31692	-0.219627	-0.0285802	0.00200916	0.505942	0.246409	0.170352	-0.416215	0.163766	-0.0299809	-0.0350909	-0.12421	-0.114089	0.0483448	-0.49311	-0.31026	0.0653638	1.8391	1.85049	-0.0211789	-0.00609321	-0.752679	-0.268571	-0.102593	1.99054	2.06076	0.0469961	-0.0246415
2.40833	-0.0742234	0.111163	0.0952938	0.919108	0.978746	-0.306997	0.0120855	-0.0928069	-0.0320694	-1.40504	-0.202555	-0.0285802	0.00200916	0.510808	0.270203	0.168965	-0.469334	0.145558	-0.0299809	-0.0350909	-0.135191	-0.127934	0.024033	-0.498067	-0.30554	0.0628675	1.80221	1.85405	-0.0211789	-0.00609321	-0.73227	-0.269692	-0.10257	1.98761	2.05273	0.0469961	-0.0246415
2.41667	-0.0724194	0.125702	0.101693	0.917118	0.97176	-0.308055	0.0524965	-0.116877	-0.0385266	-1.49026	-0.185818	-0.0285802	0.00200916	0.518337	0.294842	0.166879	-0.527015	0.134103	-0.0299809	-0.0350909	-0.145752	-0.142792	-0.00212164	-0.500938	-0.301132	0.0611503	1.76121	1.85801	-0.0211789	-0.00609321	-0.710132	-0.271289	-0.10254	1.98431	2.04548	0.0469961	-0.0246415
2.425	-0.0714641	0.140572	0.107265	0.914852	0.964983	-0.308938	0.0962071	-0.140606	-0.0399321	-1.57177	-0.169796	-0.0285802	0.00200916	0.527363	0.319275	0.163856	-0.587175	0.131812	-0.0299809	-0.0350909	-0.155864	-0.158177	-0.0296766	-0.501321	-0.297108	0.0604566	1.71551	1.86198	-0.0211789	-0.00609321	-0.68596	-0.273183	-0.102563	1.98041	2.03949	0.0469961	-0.0246415
2.43333	-0.0711415	0.155168	0.111632	0.912346	0.958589	-0.309608	0.143089	-0.162531	-0.0357004	-1.64857	-0.15474	-0.0285802	0.00200916	0.536232	0.342452	0.159961	-0.64718	0.139748	-0.0299809	-0.0350909	-0.165551	-0.173475	-0.0579167	-0.499331	-0.293484	0.0606544	1.66507	1.86581	-0.0211789	-0.00609321	-0.659438	-0.275253	-0.10254	1.97577	2.03536	0.0469961	-0.0246415
2.44167	-0.0711918	0.168868	0.114475	0.909662	0.952696	-0.310061	0.192719	-0.181289	-0.0257467	-1.71955	-0.140705	-0.0285802	0.00200916	0.543059	0.363401	0.155528	-0.704156	0.157525	-0.0299809	-0.0350909	-0.174806	-0.187981	-0.0859801	-0.495521	-0.290318	0.0613873	1.61046	1.86954	-0.0211789	-0.00609321	-0.630409	-0.277341	-0.102345	1.97041	2.03359	0.0469961	-0.0246415
